<?xml version="1.0" standalone="no"?>
<!DOCTYPE svg PUBLIC "-//W3C//DTD SVG 1.0//EN" "http://www.w3.org/TR/2001/REC-SVG-20010904/DTD/svg10.dtd">
<svg xmlns="http://www.w3.org/2000/svg" xmlns:xlink="http://www.w3.org/1999/xlink" id="body_1" width="2500" height="2500">

<g transform="matrix(5 0 0 5 0 0)">
	<g>
        <path d="M-0.5 -0.5C 166.167 -0.5 332.833 -0.5 499.5 -0.5C 499.5 166.167 499.5 332.833 499.5 499.5C 332.833 499.5 166.167 499.5 -0.5 499.5C -0.5 332.833 -0.5 166.167 -0.5 -0.5z" stroke="none" fill="#000000" fill-rule="nonzero" />
	</g>
	<g>
        <path d="M235.5 90.5C 248.882 88.5974 261.215 91.264 272.5 98.5C 273.387 110.408 272.053 122.075 268.5 133.5C 253.901 128.702 239.234 128.369 224.5 132.5C 220.983 121.085 219.483 109.418 220 97.5C 224.703 93.8941 229.87 91.5607 235.5 90.5z" stroke="none" fill="#FAFAFA" fill-rule="nonzero" />
	</g>
	<g>
        <path d="M214.5 102.5C 215.587 114.656 218.087 126.656 222 138.5C 228.502 153.669 235.668 168.503 243.5 183C 233.633 200.565 223.633 218.065 213.5 235.5C 202.866 218.228 194.366 199.894 188 180.5C 185.674 171.631 185.007 162.631 186 153.5C 196.031 136.769 205.531 119.769 214.5 102.5z" stroke="none" fill="#FBFBFB" fill-rule="nonzero" />
	</g>
	<g>
        <path d="M277.5 105.5C 287.478 121.443 296.978 137.776 306 154.5C 306.981 173.258 302.981 190.925 294 207.5C 256.906 272.015 220.573 337.015 185 402.5C 182.239 385.928 179.906 369.261 178 352.5C 176.467 339.847 175.467 327.181 175 314.5C 205.667 259.833 236.333 205.167 267 150.5C 274.109 136.34 277.609 121.34 277.5 105.5z" stroke="none" fill="#FCFCFC" fill-rule="nonzero" />
	</g>
	<g>
        <path d="M277.5 244.5C 292.64 270.103 307.807 295.77 323 321.5C 320.126 349.995 316.126 378.329 311 406.5C 289.645 370.455 268.812 334.122 248.5 297.5C 257.908 279.683 267.575 262.016 277.5 244.5z" stroke="none" fill="#FCFCFC" fill-rule="nonzero" />
	</g>
</g>
</svg>