<?xml version="1.0" standalone="no"?>
<!DOCTYPE svg PUBLIC "-//W3C//DTD SVG 20010904//EN"
 "http://www.w3.org/TR/2001/REC-SVG-20010904/DTD/svg10.dtd">
<svg version="1.0" xmlns="http://www.w3.org/2000/svg"
 width="1177.000000pt" height="2000.000000pt" viewBox="0 0 1177.000000 2000.000000"
 preserveAspectRatio="xMidYMid meet">
<metadata>
Created by potrace 1.16, written by Peter Selinger 2001-2019
</metadata>
<g transform="translate(0.000000,2000.000000) scale(0.100000,-0.100000)"
fill="#000000" stroke="none">
<path d="M5579 17269 c-147 -21 -333 -88 -420 -150 l-31 -22 5 -206 c6 -235
24 -363 89 -623 l41 -166 51 20 c165 66 348 94 566 85 221 -9 364 -39 518
-108 44 -20 64 -25 67 -16 85 259 147 676 130 885 l-7 87 -51 39 c-112 84
-303 152 -489 176 -96 12 -387 11 -469 -1z"/>
<path d="M4597 16250 l-416 -739 -7 -78 c-7 -85 8 -279 32 -413 54 -302 160
-602 332 -946 96 -191 407 -773 420 -786 5 -5 89 134 187 309 98 175 283 503
411 730 129 226 234 415 234 420 0 5 -77 152 -171 328 -274 514 -376 733 -464
997 -99 299 -138 508 -139 750 -1 93 -1 168 -1 168 -1 0 -188 -333 -418 -740z"/>
<path d="M6697 16919 c5 -19 8 -117 7 -219 0 -168 -3 -199 -32 -338 -78 -373
-222 -707 -543 -1257 -288 -494 -1147 -2022 -1809 -3219 l-453 -818 142 -1197
c79 -657 143 -1197 145 -1198 1 -1 247 442 546 985 889 1612 1838 3311 2249
4024 94 164 200 356 235 426 216 430 337 854 336 1175 -1 192 25 136 -420 937
-221 399 -404 727 -406 729 -2 3 -1 -11 3 -30z"/>
<path d="M6316 12338 c-225 -402 -409 -736 -409 -743 0 -27 1381 -2433 1694
-2952 24 -40 46 -69 50 -65 3 4 81 527 172 1163 l167 1157 -186 313 c-103 173
-344 589 -537 924 -480 836 -528 919 -536 927 -3 4 -191 -322 -415 -724z"/>
<path d="M4129 7623 c-9 -2 -31 -36 -49 -76 -19 -40 -49 -106 -68 -147 -52
-113 -82 -179 -165 -360 -41 -91 -88 -194 -105 -230 -16 -36 -63 -139 -105
-230 -41 -91 -89 -196 -107 -235 -35 -75 -49 -107 -130 -285 -51 -111 -75
-163 -141 -307 -17 -38 -51 -113 -76 -168 -25 -55 -60 -131 -78 -170 -65 -140
-105 -227 -105 -230 0 -1 -22 -49 -49 -106 -26 -57 -58 -126 -71 -154 -28 -63
-57 -127 -109 -238 -23 -49 -41 -95 -41 -103 0 -11 31 -14 171 -14 l170 0 16
38 c8 20 34 80 58 132 85 188 98 217 157 350 33 74 76 170 95 213 l36 77 849
0 c544 0 848 -3 848 -10 0 -5 14 -40 31 -77 17 -38 46 -102 64 -143 18 -41 44
-100 58 -130 13 -30 35 -77 47 -105 12 -27 34 -77 49 -110 15 -33 43 -94 61
-135 19 -41 38 -81 43 -87 11 -15 347 -19 347 -4 0 12 -21 60 -75 176 -25 53
-45 98 -45 100 0 2 -25 56 -55 120 -30 65 -55 118 -55 120 0 2 -20 45 -44 97
-24 51 -53 116 -66 143 -31 70 -59 130 -128 280 -32 72 -69 153 -82 180 -12
28 -36 79 -52 115 -17 36 -52 112 -78 170 -45 99 -65 143 -141 308 -17 37 -50
110 -74 162 -24 52 -57 125 -74 163 -71 154 -97 210 -168 367 -42 91 -90 197
-108 235 -17 39 -56 123 -85 187 -38 84 -59 118 -74 122 -24 7 -273 6 -297 -1z
m209 -488 c27 -60 59 -132 72 -160 12 -27 28 -63 35 -80 94 -209 188 -421 208
-465 58 -129 77 -172 132 -295 31 -71 75 -168 96 -213 22 -46 39 -86 39 -88 0
-2 14 -34 31 -71 17 -38 35 -78 40 -90 l9 -23 -720 0 c-405 0 -720 4 -720 9 0
8 25 68 77 181 14 30 71 159 128 285 57 127 114 255 128 285 28 62 49 110 100
225 19 44 48 109 65 145 16 36 39 86 51 113 12 26 30 68 42 95 12 26 34 76 50
111 16 35 39 86 51 113 11 27 25 45 29 41 4 -4 30 -57 57 -118z"/>
<path d="M7277 7618 c-10 -7 -49 -83 -88 -168 -38 -85 -76 -168 -84 -185 -7
-16 -29 -64 -48 -105 -34 -74 -115 -251 -155 -340 -11 -25 -36 -79 -55 -120
-45 -98 -81 -177 -111 -242 -13 -29 -51 -111 -83 -183 -71 -153 -91 -197 -190
-415 -42 -91 -89 -194 -105 -230 -62 -135 -78 -170 -163 -355 -48 -104 -93
-203 -100 -220 -121 -261 -213 -470 -209 -477 9 -14 330 -10 341 5 5 6 22 41
37 77 16 36 41 93 56 126 16 34 79 176 141 315 62 140 117 260 122 267 7 9
190 12 852 12 l843 0 67 -152 c38 -84 80 -180 95 -213 15 -33 46 -100 68 -150
22 -49 51 -115 65 -145 14 -30 34 -76 46 -102 l21 -48 170 0 c93 0 171 3 174
8 2 4 -4 25 -14 47 -10 22 -46 101 -80 175 -72 155 -99 215 -130 285 -13 28
-50 109 -82 180 -33 72 -71 155 -85 185 -14 30 -38 82 -53 115 -15 33 -39 85
-53 115 -14 30 -52 114 -85 185 -32 72 -69 153 -82 180 -31 70 -59 130 -127
280 -33 72 -73 157 -88 190 -15 33 -50 110 -77 170 -28 61 -63 137 -78 170
-15 33 -38 83 -50 110 -13 28 -42 92 -66 143 -24 52 -44 95 -44 97 0 2 -23 52
-51 112 -28 59 -60 128 -71 153 -11 25 -31 68 -43 96 -13 28 -31 54 -40 58
-32 12 -290 7 -308 -6z m188 -422 c81 -180 125 -278 125 -281 0 -1 18 -43 41
-92 22 -48 46 -101 54 -118 69 -157 92 -208 131 -293 19 -41 34 -75 34 -77 0
-2 13 -32 29 -67 53 -115 82 -181 167 -373 47 -104 89 -198 94 -207 6 -10 10
-22 10 -28 0 -7 -240 -10 -720 -10 l-720 0 10 25 c5 14 18 44 29 68 10 23 46
103 79 177 33 74 71 160 85 190 14 30 34 76 46 103 11 26 30 66 40 90 11 23
37 83 59 132 22 50 51 115 65 145 13 30 35 78 47 105 12 28 33 75 47 105 14
30 43 96 65 145 22 50 56 123 74 163 19 41 34 76 34 78 0 2 10 25 22 51 20 43
22 44 30 23 5 -13 15 -37 23 -54z"/>
</g>
</svg>
